#!OML:ASF G:\ViconDB\ViconDB\414\test\team2\shane.ASF
:FULLY-SPECIFIED
:DEGREES
510
root 10.1659 16.889 -20.4711 -201.584 -61.4721 -166.805
lowerback 9.07302 0.469846 1.78299
upperback 3.19223 0.669278 1.78655
thorax -1.77647 0.266619 0.774416
lowerneck -16.7688 -2.1943 -7.05154
upperneck 24.465 -2.71677 4.42979
head 10.8111 -1.52707 2.37213
rclavicle 1.00883e-014 5.96354e-015
rhumerus -33.5371 -1.84111 -87.7859
rradius 30.1792
rwrist 39.6267
rhand -29.6546 -11.2367
rfingers 7.12502
rthumb -2.9839 -41.1956
lclavicle 1.00883e-014 5.96354e-015
lhumerus -34.1186 -17.0912 96.5591
lradius 25.6441
lwrist -20.1908
lhand -38.6003 5.44864
lfingers 7.12502
lthumb -11.6182 35.1066
rfemur 2.33672 -11.954 10.8245
rtibia 62.2486
rfoot -9.59311 1.02759
rtoes -13.9014
lfemur 5.87677 13.3715 -14.9266
ltibia 20.9151
lfoot -19.2535 -27.0898
ltoes -1.60869
511
root 10.0618 16.8912 -20.5421 -202.288 -62.5112 -166.202
lowerback 9.2421 0.367435 1.37132
upperback 3.25863 0.498453 1.86086
thorax -1.80563 0.178274 1.09996
lowerneck -16.8708 -2.20885 -7.03168
upperneck 24.7293 -2.76147 4.45897
head 10.9321 -1.54713 2.37549
rclavicle 2.47052e-014 2.26615e-014
rhumerus -34.4163 -3.01629 -87.1161
rradius 29.599
rwrist 40.4753
rhand -29.4761 -11.2003
rfingers 7.12502
rthumb -2.8115 -41.1615
lclavicle 2.47052e-014 2.26615e-014
lhumerus -32.8818 -17.2983 96.2611
lradius 25.7949
lwrist -22.2015
lhand -39.0075 5.29874
lfingers 7.12502
lthumb -12.0109 34.9341
rfemur 1.10928 -11.6928 11.4032
rtibia 62.1197
rfoot -10.4692 0.686323
rtoes -13.8118
lfemur 6.60411 12.7041 -14.8546
ltibia 20.4617
lfoot -19.3658 -27.5505
ltoes -1.60461
512
root 9.94945 16.8886 -20.5964 -202.975 -63.3755 -165.64
lowerback 9.36042 0.2762 1.33907
upperback 3.38694 0.367967 1.91976
thorax -1.73726 0.109698 1.19285
lowerneck -16.9148 -2.26158 -7.00029
upperneck 24.8276 -2.79807 4.28444
head 10.9774 -1.58275 2.30205
rclavicle -5.83122e-014 -3.77691e-014
rhumerus -35.2193 -3.81749 -86.4602
rradius 29.1652
rwrist 41.0172
rhand -29.3776 -11.2074
rfingers 7.12502
rthumb -2.71638 -41.1698
lclavicle -5.83122e-014 -3.77691e-014
lhumerus -31.798 -18.3764 96.5144
lradius 26.5775
lwrist -21.4044
lhand -38.6728 4.92684
lfingers 7.12502
lthumb -11.6881 34.5808
rfemur -0.0753647 -11.2064 11.8464
rtibia 61.7143
rfoot -11.2457 0.755993
rtoes -12.2746
lfemur 7.34911 12.0694 -14.8417
ltibia 20.1184
lfoot -19.6269 -27.8058
ltoes -1.68961
513
root 9.84082 16.8805 -20.6582 -203.677 -64.3679 -165.048
lowerback 9.4974 0.146016 1.11759
upperback 3.49792 0.171058 2.00173
thorax -1.69661 0.00722236 1.42346
lowerneck -17.2308 -2.27637 -7.42552
upperneck 25.2424 -2.79643 4.65397
head 11.2069 -1.58223 2.51404
rclavicle 4.2484e-014 -4.96962e-014
rhumerus -36.042 -4.40173 -85.8615
rradius 28.6919
rwrist 40.93
rhand -29.4172 -11.2833
rfingers 7.12502
rthumb -2.75459 -41.2452
lclavicle 4.2484e-014 -4.96962e-014
lhumerus -30.7339 -19.2513 96.7125
lradius 27.4462
lwrist -20.5935
lhand -38.4851 5.56663
lfingers 7.12502
lthumb -11.5071 35.2308
rfemur -1.14692 -11.0966 12.2906
rtibia 61.0593
rfoot -12.1844 0.353868
rtoes -13.394
lfemur 7.99173 11.4684 -14.817
ltibia 19.8592
lfoot -19.8695 -28.2901
ltoes -1.49671
514
root 9.73789 16.8738 -20.7209 -204.749 -65.4615 -164.023
lowerback 9.77909 -0.0297854 1.018
upperback 3.51683 -0.0674523 2.07993
thorax -1.82757 -0.114378 1.58795
lowerneck -17.2331 -2.32123 -7.48537
upperneck 25.3205 -2.85189 4.67213
head 11.2423 -1.61227 2.52373
rclavicle 7.59357e-014 -3.49861e-014
rhumerus -36.9793 -4.93853 -85.3614
rradius 28.3345
rwrist 40.8436
rhand -29.1459 -11.5721
rfingers 7.12502
rthumb -2.4926 -41.5372
lclavicle 7.59357e-014 -3.49861e-014
lhumerus -29.8598 -20.2458 96.8482
lradius 27.8902
lwrist -20.7304
lhand -39.1925 5.4454
lfingers 7.12502
lthumb -12.1892 35.0703
rfemur -2.19659 -10.8544 12.8806
rtibia 60.148
rfoot -12.9114 0.00908492
rtoes -12.202
lfemur 8.55602 10.7137 -14.6629
ltibia 19.6325
lfoot -19.9846 -28.8123
ltoes -1.46827
515
root 9.62611 16.8653 -20.7817 -205.655 -66.4264 -163.171
lowerback 9.86885 -0.132391 0.936325
upperback 3.6161 -0.215938 2.12803
thorax -1.7705 -0.191588 1.70061
lowerneck -17.4534 -2.3982 -7.64173
upperneck 25.5286 -2.95453 4.84379
head 11.3775 -1.6527 2.60092
rclavicle -3.90612e-014 1.63003e-014
rhumerus -37.6952 -5.87291 -84.5577
rradius 27.6375
rwrist 41.4325
rhand -28.9734 -11.3209
rfingers 7.12502
rthumb -2.326 -41.288
lclavicle -3.90612e-014 1.63003e-014
lhumerus -28.9323 -20.9783 96.8312
lradius 28.7277
lwrist -20.642
lhand -38.8352 5.41564
lfingers 7.12502
lthumb -11.8448 35.0606
rfemur -3.2534 -10.7969 13.3787
rtibia 59.0152
rfoot -13.6755 -0.505389
rtoes -13.7819
lfemur 9.12392 10.1534 -14.5765
ltibia 19.4571
lfoot -20.2236 -29.295
ltoes -1.39136
